<?xml version="1.0" encoding="utf-8"?>
<!-- Generator: Adobe Illustrator 13.0.1, SVG Export Plug-In  -->
<!DOCTYPE svg PUBLIC "-//W3C//DTD SVG 1.1//EN" "http://www.w3.org/Graphics/SVG/1.1/DTD/svg11.dtd" [
	<!ENTITY ns_flows "http://ns.adobe.com/Flows/1.0/">
]>
<svg version="1.1"
	 xmlns="http://www.w3.org/2000/svg" xmlns:xlink="http://www.w3.org/1999/xlink" xmlns:a="http://ns.adobe.com/AdobeSVGViewerExtensions/3.0/"
	 x="0px" y="0px" width="56px" height="29px" viewBox="-0.7 -0.123 56 29" enable-background="new -0.7 -0.123 56 29"
	 xml:space="preserve">
<defs>
</defs>
<path fill="#007AC2" d="M36.941,10.88c-0.342-0.256-0.88-0.41-1.402-0.402c-0.567,0.008-1.109,0.19-1.486,0.491v-3.58h-1.771v11.675
	h1.771V12.97c0-0.425,0.356-0.893,1.016-0.921c0.294-0.013,0.702,0.115,0.908,0.424c0.22,0.327,0.207,0.762,0.207,1.237
	l-0.002,5.354h1.771v-5.421C37.952,12.044,37.744,11.475,36.941,10.88"/>
<path fill="#007AC2" d="M22.537,14.889c0,1.142-0.036,1.464-0.045,1.563c-0.062,0.634-0.332,1.305-1.07,1.305
	c-0.737,0-1.036-0.717-1.068-1.335c-0.002-0.004-0.046-0.391-0.046-1.533c0-1.145,0.045-1.621,0.046-1.625
	c0.009-0.645,0.343-1.29,1.068-1.29s1.06,0.645,1.069,1.283C22.492,13.268,22.537,13.744,22.537,14.889 M24.25,13.511
	c-0.251-2.496-1.668-3.032-2.831-3.032c-1.648,0-2.651,1.049-2.832,3.028c-0.016,0.158-0.04,0.449-0.049,1.382
	c-0.006,0.679,0.037,1.235,0.046,1.376c0.112,1.848,1.174,2.987,2.835,2.987c1.662,0,2.72-1.158,2.836-2.987
	c0.008-0.13,0.046-0.697,0.046-1.376C24.301,14.581,24.272,13.745,24.25,13.511z"/>
<path fill="#007AC2" d="M40.908,13.837c0.013-0.386,0.013-0.468,0.021-0.58c0.05-0.699,0.362-1.278,1.079-1.283
	c0.849-0.006,1.049,0.826,1.079,1.287c0.015,0.242,0.034,0.404,0.031,0.576H40.908 M43.095,16.177c0,0,0.003,0.13-0.017,0.288
	c-0.05,0.412-0.212,1.292-1.074,1.292c-0.734,0-1.017-0.667-1.066-1.332c-0.009-0.189-0.044-0.4-0.042-1.117h3.949
	c0,0,0.007-0.588-0.004-0.941c-0.006-0.139-0.013-0.37-0.046-0.857c-0.054-0.749-0.334-1.567-0.763-2.096
	c-0.496-0.612-1.197-0.935-2.028-0.935c-1.595,0-2.592,1.039-2.788,3.029c-0.018,0.178-0.047,0.427-0.047,1.381
	c0,0.679,0.038,1.247,0.045,1.376c0.107,1.818,1.182,2.987,2.79,2.987c1.604,0,2.679-1.139,2.791-3.075H43.095z"/>
<path fill="#007AC2" d="M12.937,1.43h28.78l11.005,12.877l-11.002,12.7H12.935L1.89,14.264L12.937,1.43 M42.413,0H12.242L0,14.219
	l12.243,14.128h30.169L54.61,14.265L42.413,0z"/>
<path fill="#007AC2" d="M13.293,8.974h0.838c0.911,0,1.405,0.483,1.427,1.346c0.002,0.063,0.009,0.136,0.009,0.27
	c0,0.157-0.002,0.213-0.008,0.273c-0.051,0.513-0.276,1.407-1.343,1.407h-0.923V8.974 M17.487,18.341
	c0,0.002-0.182-2.866-0.182-2.866c-0.079-1.282-0.413-2.038-1.076-2.425c0.479-0.288,1.099-1.001,1.092-2.489
	c-0.008-2.267-1.415-3.062-3.071-3.08h-2.706v11.583h1.748l0.001-5.299h0.973c0.563,0,1.197,0.492,1.293,1.875l0.182,2.712
	c0.015,0.384,0.088,0.713,0.088,0.713h1.749C17.577,19.065,17.502,18.745,17.487,18.341z"/>
<path fill="#007AC2" d="M29.423,16.097c-0.007,0.128-0.016,0.243-0.022,0.325c-0.05,0.647-0.277,1.335-1.068,1.335
	c-0.738,0-1.029-0.746-1.083-1.295c-0.032-0.334-0.024-0.592-0.031-1.573c-0.008-1.145,0.029-1.439,0.045-1.625
	c0.063-0.724,0.343-1.285,1.069-1.29c0.746-0.005,1.06,0.645,1.068,1.283c0,0.007,0.016,0.161,0.027,0.5h1.752
	c-0.006-0.117-0.011-0.214-0.015-0.271c-0.199-2.421-1.673-3.007-2.836-3.007c-1.648,0-2.652,1.049-2.833,3.028
	c-0.016,0.158-0.04,0.449-0.048,1.382c-0.008,0.679,0.035,1.235,0.045,1.376c0.113,1.848,1.174,2.983,2.836,2.987
	c1.721,0.006,2.671-1.044,2.836-2.987c0.005-0.071,0.015-0.12,0.01-0.168H29.423"/>
</svg>
